# xmcd
#
# Track frame offsets:
#	150
#	12901
#	30921
#	50246
#	64425
#	81226
#	95056
#	110390
#	126376
#	139730
#	155329
#
# Disc length: 2217 seconds
#
# Revision: 1
# Processed by: cddbd v1.5.1PL0 Copyright (c) Steve Scherf et al.
# Submitted via: EasyCDDAExtractor 6.5.2.1
#
DISCID=9708a70b
DTITLE=David Andrews - everthing to lose
DYEAR=2004
DGENRE=Folk-Rock
TTITLE0=Everything to Lose
TTITLE1=Completely
TTITLE2=It Don't Cost Much
TTITLE3=Oh Mrs. Johnson
TTITLE4=Fadeaway
TTITLE5=Treasure Today
TTITLE6=Ride of Your Life
TTITLE7=Don't Walk Away
TTITLE8=At the Crossing
TTITLE9=Common Good
TTITLE10=Little Mary
EXTD=
EXTT0=
EXTT1=
EXTT2=
EXTT3=
EXTT4=
EXTT5=
EXTT6=
EXTT7=
EXTT8=
EXTT9=
EXTT10=
PLAYORDER=
